<?xml version="1.0" encoding="UTF-8"?>
<!DOCTYPE svg PUBLIC "-//W3C//DTD SVG 1.1//EN" "http://www.w3.org/Graphics/SVG/1.1/DTD/svg11.dtd">
<svg xmlns="http://www.w3.org/2000/svg" version="1.1" width="4000px" height="1308px" style="shape-rendering:geometricPrecision; text-rendering:geometricPrecision; image-rendering:optimizeQuality; fill-rule:evenodd; clip-rule:evenodd" xmlns:xlink="http://www.w3.org/1999/xlink">
<g><path style="opacity:0.998" fill="#d1082a" d="M 1876.5,183.5 C 2026.5,183.333 2176.5,183.5 2326.5,184C 2353.19,188.026 2369.69,203.193 2376,229.5C 2376.67,382.5 2376.67,535.5 2376,688.5C 2369.7,714.8 2353.2,729.967 2326.5,734C 2176.5,734.667 2026.5,734.667 1876.5,734C 1849.35,729.849 1832.85,714.349 1827,687.5C 1826.33,534.833 1826.33,382.167 1827,229.5C 1833.48,203.181 1849.98,187.848 1876.5,183.5 Z"/></g>
<g><path style="opacity:1" fill="#fefdfd" d="M 1968.5,371.5 C 1968.5,386.167 1968.5,400.833 1968.5,415.5C 1966.5,415.5 1964.5,415.5 1962.5,415.5C 1929.94,410.783 1909.44,392.45 1901,360.5C 1896.39,318.329 1909.22,282.496 1939.5,253C 1944.89,248.611 1950.56,244.611 1956.5,241C 1959.06,239.374 1961.72,238.374 1964.5,238C 1944.95,274.804 1939.12,313.637 1947,354.5C 1951.05,364.109 1958.22,369.775 1968.5,371.5 Z"/></g>
<g><path style="opacity:1" fill="#fefdfd" d="M 2238.5,236.5 C 2274.15,256.029 2295.32,286.029 2302,326.5C 2307.47,357.425 2298.31,382.925 2274.5,403C 2262.56,411.487 2249.23,415.653 2234.5,415.5C 2234.33,400.83 2234.5,386.163 2235,371.5C 2238.59,370.711 2242.09,369.544 2245.5,368C 2253.79,361.159 2258.29,352.326 2259,341.5C 2262.1,304.514 2255.27,269.514 2238.5,236.5 Z"/></g>
<g><path style="opacity:0.993" fill="#f9f9f9" d="M 332.5,294.5 C 371.323,291.574 407.323,300.074 440.5,320C 458.262,332.031 471.429,347.864 480,367.5C 482.431,373.96 483.931,380.626 484.5,387.5C 484.1,392.827 481.434,396.327 476.5,398C 455.833,398.667 435.167,398.667 414.5,398C 411.452,397.394 408.952,395.894 407,393.5C 392.303,363.231 368.136,350.397 334.5,355C 306.795,358.04 290.295,373.207 285,400.5C 284.034,406.13 283.367,411.796 283,417.5C 282.333,444.5 282.333,471.5 283,498.5C 283.79,539.954 304.79,561.621 346,563.5C 393.362,561.629 415.196,536.963 411.5,489.5C 393.073,489.974 374.74,489.474 356.5,488C 354.622,486.457 353.122,484.624 352,482.5C 351.333,469.833 351.333,457.167 352,444.5C 353.25,441.829 355.083,439.663 357.5,438C 398.167,437.333 438.833,437.333 479.5,438C 483.816,440.126 485.983,443.626 486,448.5C 486.782,471.517 486.448,494.517 485,517.5C 477.649,568.184 449.483,601.018 400.5,616C 361.633,626.456 322.966,625.79 284.5,614C 240.674,597.563 215.507,566.063 209,519.5C 206.134,481.529 205.801,443.529 208,405.5C 214.681,345.815 247.514,309.982 306.5,298C 315.313,296.816 323.98,295.65 332.5,294.5 Z"/></g>
<g><path style="opacity:0.993" fill="#f9f9f9" d="M 655.5,294.5 C 691.915,291.855 725.582,300.021 756.5,319C 783.782,339.672 799.282,367.172 803,401.5C 805.818,436.14 806.151,470.806 804,505.5C 798.41,575.09 760.91,613.924 691.5,622C 575.164,630.164 521.498,575.997 530.5,459.5C 530.415,440.811 530.915,422.144 532,403.5C 538.919,349.588 568.419,315.088 620.5,300C 632.196,297.418 643.862,295.584 655.5,294.5 Z M 657.5,354.5 C 698.34,351.52 721.84,370.187 728,410.5C 729.989,442.501 729.989,474.501 728,506.5C 725.951,538.149 709.451,556.982 678.5,563C 636.172,566.661 612.339,547.495 607,505.5C 605,474.5 605,443.5 607,412.5C 609.647,380.377 626.48,361.044 657.5,354.5 Z"/></g>
<g><path style="opacity:0.993" fill="#f9f9f9" d="M 1608.5,294.5 C 1636.08,293.035 1662.75,297.202 1688.5,307C 1727.34,324.859 1749.84,355.026 1756,397.5C 1757,405.471 1757.66,413.471 1758,421.5C 1758.67,446.833 1758.67,472.167 1758,497.5C 1758.09,527.232 1749.75,554.232 1733,578.5C 1712.18,602.997 1685.68,617.163 1653.5,621C 1619.74,626.103 1586.74,623.103 1554.5,612C 1514.2,594.336 1491.37,563.503 1486,519.5C 1483.1,482.53 1482.77,445.53 1485,408.5C 1489.83,353.689 1518.33,317.856 1570.5,301C 1583.14,297.843 1595.81,295.676 1608.5,294.5 Z M 1611.5,354.5 C 1650.51,350.9 1673.67,368.233 1681,406.5C 1683.78,438.139 1684.12,469.806 1682,501.5C 1681.48,535.109 1664.98,555.609 1632.5,563C 1609.56,566.463 1590.06,559.963 1574,543.5C 1566.6,533.02 1562.27,521.354 1561,508.5C 1559.43,478.855 1559.09,449.188 1560,419.5C 1559.9,398.884 1567.07,381.384 1581.5,367C 1590.55,360.377 1600.55,356.21 1611.5,354.5 Z"/></g>
<g><path style="opacity:0.993" fill="#f9f9f9" d="M 3650.5,294.5 C 3681.78,292.455 3711.44,298.289 3739.5,312C 3759.83,323.328 3774.99,339.494 3785,360.5C 3788.9,368.773 3790.24,377.44 3789,386.5C 3787.46,388.378 3785.62,389.878 3783.5,391C 3763.17,391.667 3742.83,391.667 3722.5,391C 3719.9,390.117 3717.73,388.617 3716,386.5C 3709.7,369.927 3697.86,359.761 3680.5,356C 3661.97,352.221 3644.3,354.555 3627.5,363C 3615,374.818 3612.84,388.318 3621,403.5C 3630.7,412.858 3642.2,419.024 3655.5,422C 3676.97,428.427 3698.63,434.093 3720.5,439C 3740.09,444.133 3758.09,452.467 3774.5,464C 3794.43,482.449 3802.93,505.282 3800,532.5C 3797.04,562.933 3782.54,586.1 3756.5,602C 3723.56,618.991 3688.56,625.991 3651.5,623C 3613.33,622.652 3580.5,609.485 3553,583.5C 3539.89,568.276 3533.22,550.61 3533,530.5C 3533.79,527.417 3535.62,525.251 3538.5,524C 3557.83,523.333 3577.17,523.333 3596.5,524C 3598.73,524.561 3600.73,525.561 3602.5,527C 3616.21,552.672 3637.71,564.839 3667,563.5C 3683.2,564.325 3698.36,560.825 3712.5,553C 3729.71,537.153 3729.71,521.487 3712.5,506C 3705.44,502.135 3698.1,498.802 3690.5,496C 3665.64,488.867 3640.64,482.2 3615.5,476C 3594.32,469.998 3575.82,459.498 3560,444.5C 3546.58,428.567 3540.08,410.067 3540.5,389C 3542.99,348.014 3563.32,320.014 3601.5,305C 3617.52,299.365 3633.85,295.865 3650.5,294.5 Z"/></g>
<g><path style="opacity:0.996" fill="#f9f9f9" d="M 867.5,299.5 C 915.834,299.333 964.168,299.5 1012.5,300C 1038.76,301.314 1062.43,309.647 1083.5,325C 1106.37,345.25 1117.37,370.75 1116.5,401.5C 1115.85,443.67 1096.52,473.504 1058.5,491C 1080.81,529.78 1102.47,568.947 1123.5,608.5C 1122.92,612.576 1120.92,615.743 1117.5,618C 1097.17,618.667 1076.83,618.667 1056.5,618C 1051.47,616.311 1047.64,613.144 1045,608.5C 1026.55,573.095 1007.72,537.928 988.5,503C 970.503,502.5 952.503,502.333 934.5,502.5C 934.667,537.835 934.5,573.168 934,608.5C 933.687,612.965 931.521,616.132 927.5,618C 907.5,618.667 887.5,618.667 867.5,618C 863.835,616.332 861.668,613.499 861,609.5C 860.333,509.167 860.333,408.833 861,308.5C 861.873,304.475 864.039,301.475 867.5,299.5 Z M 934.5,356.5 C 958.189,356.15 981.856,356.65 1005.5,358C 1028.59,362.6 1040.25,376.767 1040.5,400.5C 1039.91,425.928 1026.91,440.095 1001.5,443C 979.169,443.5 956.836,443.667 934.5,443.5C 934.5,414.5 934.5,385.5 934.5,356.5 Z"/></g>
<g><path style="opacity:0.993" fill="#f9f9f9" d="M 1178.5,299.5 C 1225.17,299.333 1271.83,299.5 1318.5,300C 1347.81,301.214 1374.15,310.547 1397.5,328C 1419.67,347.51 1432.51,372.01 1436,401.5C 1438.89,436.47 1439.22,471.47 1437,506.5C 1430.53,577.303 1391.69,614.47 1320.5,618C 1273.17,618.667 1225.83,618.667 1178.5,618C 1176.38,616.878 1174.54,615.378 1173,613.5C 1171.34,511.248 1171,408.914 1172,306.5C 1173.36,303.314 1175.52,300.981 1178.5,299.5 Z M 1244.5,358.5 C 1267.2,358.102 1289.86,358.602 1312.5,360C 1343.99,365.497 1360.82,384.33 1363,416.5C 1365.41,449.583 1364.75,482.583 1361,515.5C 1355.62,541.204 1339.79,555.371 1313.5,558C 1290.52,559.314 1267.52,559.814 1244.5,559.5C 1244.5,492.5 1244.5,425.5 1244.5,358.5 Z"/></g>
<g><path style="opacity:0.994" fill="#f9f9f9" d="M 2462.5,299.5 C 2480.17,299.333 2497.84,299.5 2515.5,300C 2517.59,300.792 2519.42,301.959 2521,303.5C 2550.51,355.845 2579.51,408.512 2608,461.5C 2636.67,409.5 2665.33,357.5 2694,305.5C 2695.96,302.865 2698.46,301.031 2701.5,300C 2719.17,299.333 2736.83,299.333 2754.5,300C 2757.67,301.167 2759.83,303.333 2761,306.5C 2761.67,408.167 2761.67,509.833 2761,611.5C 2759.83,614.667 2757.67,616.833 2754.5,618C 2735.83,618.667 2717.17,618.667 2698.5,618C 2696,616.833 2694.17,615 2693,612.5C 2691.68,550.545 2691.01,488.545 2691,426.5C 2671.74,463.418 2652.07,500.085 2632,536.5C 2629.56,538.969 2626.73,540.802 2623.5,542C 2612.43,542.931 2601.43,542.597 2590.5,541C 2587,538.833 2584.17,536 2582,532.5C 2563.25,496.675 2544.25,461.008 2525,425.5C 2524.67,487.5 2524.33,549.5 2524,611.5C 2523.21,614.583 2521.38,616.749 2518.5,618C 2499.83,618.667 2481.17,618.667 2462.5,618C 2459.33,616.833 2457.17,614.667 2456,611.5C 2455.33,509.833 2455.33,408.167 2456,306.5C 2457.36,303.314 2459.52,300.981 2462.5,299.5 Z"/></g>
<g><path style="opacity:0.998" fill="#f9f9f9" d="M 2834.5,299.5 C 2855.17,299.333 2875.84,299.5 2896.5,300C 2900.17,301.668 2902.33,304.501 2903,308.5C 2903.67,408.833 2903.67,509.167 2903,609.5C 2902.33,613.499 2900.17,616.332 2896.5,618C 2875.83,618.667 2855.17,618.667 2834.5,618C 2832,616.833 2830.17,615 2829,612.5C 2828.33,510.167 2828.33,407.833 2829,305.5C 2830.36,302.977 2832.19,300.977 2834.5,299.5 Z"/></g>
<g><path style="opacity:0.99" fill="#f9f9f9" d="M 2976.5,299.5 C 2995.84,299.333 3015.17,299.5 3034.5,300C 3036.94,300.774 3038.77,302.274 3040,304.5C 3041.32,340.415 3041.99,376.415 3042,412.5C 3074.86,375.641 3107.7,338.808 3140.5,302C 3142.09,301.138 3143.75,300.471 3145.5,300C 3167.83,299.333 3190.17,299.333 3212.5,300C 3218.13,304.687 3218.97,310.187 3215,316.5C 3176.31,361.686 3137.81,407.02 3099.5,452.5C 3140.81,502.313 3182.31,551.98 3224,601.5C 3227.59,607.101 3227.09,612.268 3222.5,617C 3199.25,618.646 3175.92,618.979 3152.5,618C 3150.5,617 3148.5,616 3146.5,615C 3110.92,575.424 3076.09,535.258 3042,494.5C 3041.99,534.251 3041.32,573.918 3040,613.5C 3038.46,615.378 3036.62,616.878 3034.5,618C 3015.17,618.667 2995.83,618.667 2976.5,618C 2973.27,616.437 2971.1,613.937 2970,610.5C 2969.33,509.5 2969.33,408.5 2970,307.5C 2971.3,304.039 2973.47,301.372 2976.5,299.5 Z"/></g>
<g><path style="opacity:0.994" fill="#f8f8f8" d="M 3270.5,299.5 C 3343.58,299.006 3416.58,299.506 3489.5,301C 3491.62,302.731 3493.12,304.898 3494,307.5C 3494.67,321.833 3494.67,336.167 3494,350.5C 3492.9,353.937 3490.73,356.437 3487.5,358C 3436.83,358.5 3386.17,358.667 3335.5,358.5C 3335.5,382.167 3335.5,405.833 3335.5,429.5C 3382.5,429.333 3429.5,429.5 3476.5,430C 3480.74,431.245 3483.24,434.078 3484,438.5C 3484.67,451.5 3484.67,464.5 3484,477.5C 3482.83,482 3480,484.833 3475.5,486C 3428.83,486.5 3382.17,486.667 3335.5,486.5C 3335.5,510.833 3335.5,535.167 3335.5,559.5C 3387.5,559.333 3439.5,559.5 3491.5,560C 3494,561.167 3495.83,563 3497,565.5C 3497.67,581.167 3497.67,596.833 3497,612.5C 3495.83,615 3494,616.833 3491.5,618C 3417.83,618.667 3344.17,618.667 3270.5,618C 3268.08,616.337 3266.25,614.171 3265,611.5C 3264.33,509.833 3264.33,408.167 3265,306.5C 3266.37,303.734 3268.2,301.401 3270.5,299.5 Z"/></g>
<g><path style="opacity:1" fill="#db3f59" d="M 1968.5,371.5 C 1969.5,386.324 1969.83,401.324 1969.5,416.5C 1966.94,416.802 1964.61,416.468 1962.5,415.5C 1964.5,415.5 1966.5,415.5 1968.5,415.5C 1968.5,400.833 1968.5,386.167 1968.5,371.5 Z"/></g>
<g><path style="opacity:1" fill="#fefefe" d="M 1992.5,371.5 C 2065.5,371.5 2138.5,371.5 2211.5,371.5C 2211.67,422.501 2211.5,473.501 2211,524.5C 2208.48,537.346 2201.65,547.18 2190.5,554C 2180.63,559.437 2170.63,564.604 2160.5,569.5C 2158.83,600.157 2157.33,630.824 2156,661.5C 2153.6,671.567 2147.43,678.067 2137.5,681C 2113.83,681.667 2090.17,681.667 2066.5,681C 2054.64,678.141 2048.14,670.641 2047,658.5C 2045.59,628.827 2044.09,599.16 2042.5,569.5C 2032.34,564.589 2022.34,559.422 2012.5,554C 2002.94,547.78 1996.44,539.28 1993,528.5C 1992.5,476.168 1992.33,423.834 1992.5,371.5 Z"/></g>
<g><path style="opacity:1" fill="#fefefe" d="M 1968.5,439.5 C 1968.5,454.167 1968.5,468.833 1968.5,483.5C 1958.83,483.5 1949.17,483.5 1939.5,483.5C 1915.68,478.682 1901.01,464.349 1895.5,440.5C 1919.82,439.5 1944.16,439.167 1968.5,439.5 Z"/></g>
<g><path style="opacity:1" fill="#eea3af" d="M 1968.5,439.5 C 1969.5,454.324 1969.83,469.324 1969.5,484.5C 1959.32,484.827 1949.32,484.494 1939.5,483.5C 1949.17,483.5 1958.83,483.5 1968.5,483.5C 1968.5,468.833 1968.5,454.167 1968.5,439.5 Z"/></g>
<g><path style="opacity:1" fill="#fefefe" d="M 2234.5,439.5 C 2258.84,439.167 2283.18,439.5 2307.5,440.5C 2302,464.333 2287.33,478.666 2263.5,483.5C 2253.83,483.5 2244.17,483.5 2234.5,483.5C 2234.5,468.833 2234.5,454.167 2234.5,439.5 Z"/></g>
<g><path style="opacity:1" fill="#ec98a5" d="M 2234.5,439.5 C 2234.5,454.167 2234.5,468.833 2234.5,483.5C 2244.17,483.5 2253.83,483.5 2263.5,483.5C 2253.68,484.494 2243.68,484.827 2233.5,484.5C 2233.17,469.324 2233.5,454.324 2234.5,439.5 Z"/></g>
<g><path style="opacity:0.973" fill="#e9e9e5" d="M 1372.5,961.5 C 1392.5,958.828 1410.84,962.994 1427.5,974C 1436.85,982.184 1443.01,992.35 1446,1004.5C 1449.66,1029.13 1449.99,1053.47 1447,1077.5C 1443.26,1102.57 1429.09,1118.07 1404.5,1124C 1385.99,1127.25 1367.99,1125.58 1350.5,1119C 1334.78,1110.09 1325.61,1096.59 1323,1078.5C 1321.84,1065.83 1321.01,1053.33 1320.5,1041C 1319.22,1021.4 1323.05,1002.9 1332,985.5C 1342.3,971.937 1355.8,963.937 1372.5,961.5 Z M 1376.5,981.5 C 1403.37,978.57 1419.2,990.236 1424,1016.5C 1426,1034.5 1426,1052.5 1424,1070.5C 1418.15,1098 1401.31,1109.16 1373.5,1104C 1357.51,1099.55 1348.34,1089.05 1346,1072.5C 1344.51,1056.53 1344.18,1040.53 1345,1024.5C 1344.85,1002.05 1355.35,987.72 1376.5,981.5 Z"/></g>
<g><path style="opacity:0.967" fill="#e9e9e5" d="M 2271.5,961.5 C 2291.55,958.613 2309.88,962.78 2326.5,974C 2334.92,981.496 2339.92,990.83 2341.5,1002C 2341.65,1004.03 2340.98,1005.7 2339.5,1007C 2333.5,1007.67 2327.5,1007.67 2321.5,1007C 2320.58,1006.63 2319.75,1006.13 2319,1005.5C 2315.5,991.664 2306.66,983.831 2292.5,982C 2279.85,979.748 2268.18,982.082 2257.5,989C 2248.53,1001.31 2249.87,1012.31 2261.5,1022C 2265.71,1024.27 2270.05,1026.27 2274.5,1028C 2293.15,1032.55 2311.15,1038.88 2328.5,1047C 2342.86,1056.24 2348.7,1069.41 2346,1086.5C 2342,1106.17 2330.16,1118.34 2310.5,1123C 2290.86,1127.12 2271.52,1126.12 2252.5,1120C 2237.32,1114.12 2227.82,1103.29 2224,1087.5C 2223.02,1084.33 2223.52,1081.5 2225.5,1079C 2231.05,1077.43 2236.72,1077.1 2242.5,1078C 2243.93,1078.47 2245.1,1079.3 2246,1080.5C 2252.84,1098.52 2266.01,1106.85 2285.5,1105.5C 2298.57,1106.53 2309.74,1102.53 2319,1093.5C 2324.9,1082.68 2323.4,1073.18 2314.5,1065C 2299.46,1057.76 2283.79,1052.09 2267.5,1048C 2256.04,1044.69 2245.87,1039.19 2237,1031.5C 2228.99,1020.78 2226.32,1008.78 2229,995.5C 2232.53,980.964 2241.37,971.131 2255.5,966C 2260.91,964.295 2266.24,962.795 2271.5,961.5 Z"/></g>
<g><path style="opacity:0.97" fill="#e9e9e5" d="M 2547.5,961.5 C 2568.08,958.689 2586.74,963.189 2603.5,975C 2616.11,987.066 2622.61,1001.9 2623,1019.5C 2623.67,1035.5 2623.67,1051.5 2623,1067.5C 2622.44,1084.78 2616.27,1099.61 2604.5,1112C 2587.41,1124.07 2568.41,1128.4 2547.5,1125C 2519.83,1122 2503.33,1106.84 2498,1079.5C 2495.11,1057.55 2494.78,1035.55 2497,1013.5C 2501.55,983.958 2518.38,966.624 2547.5,961.5 Z M 2551.5,981.5 C 2578.55,978.923 2594.39,990.923 2599,1017.5C 2599.25,1026.19 2599.75,1034.85 2600.5,1043.5C 2599.76,1051.81 2599.26,1060.15 2599,1068.5C 2595.43,1095.07 2580.26,1107.24 2553.5,1105C 2531.72,1101 2520.56,1087.83 2520,1065.5C 2519.33,1051.17 2519.33,1036.83 2520,1022.5C 2520.74,1000.97 2531.24,987.302 2551.5,981.5 Z"/></g>
<g><path style="opacity:0.966" fill="#e9e9e5" d="M 1203.5,963.5 C 1209.51,963.334 1215.51,963.501 1221.5,964C 1222.33,964.833 1223.17,965.667 1224,966.5C 1224.5,1011.83 1224.67,1057.17 1224.5,1102.5C 1250.17,1102.33 1275.84,1102.5 1301.5,1103C 1303.33,1103.5 1304.5,1104.67 1305,1106.5C 1305.67,1111.17 1305.67,1115.83 1305,1120.5C 1304.17,1121.33 1303.33,1122.17 1302.5,1123C 1269.5,1123.67 1236.5,1123.67 1203.5,1123C 1203,1122.5 1202.5,1122 1202,1121.5C 1200.35,1070.56 1200.01,1019.56 1201,968.5C 1201.37,966.548 1202.2,964.882 1203.5,963.5 Z"/></g>
<g><path style="opacity:0.968" fill="#e9e9e5" d="M 1472.5,963.5 C 1478.18,963.334 1483.84,963.501 1489.5,964C 1490.42,964.374 1491.25,964.874 1492,965.5C 1499.76,1004.3 1507.76,1042.96 1516,1081.5C 1523.67,1056.17 1531.33,1030.83 1539,1005.5C 1541.13,999.681 1545.3,997.348 1551.5,998.5C 1556.64,997.445 1560.47,999.111 1563,1003.5C 1571,1029.5 1579,1055.5 1587,1081.5C 1595.05,1043.6 1602.71,1005.6 1610,967.5C 1610.47,966.069 1611.3,964.903 1612.5,964C 1618.5,963.333 1624.5,963.333 1630.5,964C 1631.74,965.154 1632.74,966.488 1633.5,968C 1623.8,1016.82 1613.97,1065.65 1604,1114.5C 1603.33,1122.26 1599.16,1125.26 1591.5,1123.5C 1588.83,1123.33 1586.17,1123.17 1583.5,1123C 1582.58,1122.63 1581.75,1122.13 1581,1121.5C 1570.99,1092.13 1560.99,1062.8 1551,1033.5C 1541.66,1062.18 1532.33,1090.84 1523,1119.5C 1522.17,1121 1521,1122.17 1519.5,1123C 1514.17,1123.67 1508.83,1123.67 1503.5,1123C 1501.12,1121.08 1499.62,1118.58 1499,1115.5C 1489.23,1066.49 1479.4,1017.49 1469.5,968.5C 1470.09,966.577 1471.09,964.911 1472.5,963.5 Z"/></g>
<g><path style="opacity:0.965" fill="#e9e9e5" d="M 1754.5,963.5 C 1762.17,963.334 1769.84,963.5 1777.5,964C 1778.42,964.374 1779.25,964.874 1780,965.5C 1799.96,1016.06 1819.13,1066.89 1837.5,1118C 1837.65,1120.03 1836.98,1121.7 1835.5,1123C 1829.83,1123.67 1824.17,1123.67 1818.5,1123C 1817.58,1122.63 1816.75,1122.13 1816,1121.5C 1811.69,1110.24 1807.19,1099.07 1802.5,1088C 1777.83,1087.17 1753.16,1087.33 1728.5,1088.5C 1724.57,1098.46 1720.74,1108.46 1717,1118.5C 1716.22,1120.29 1715.05,1121.79 1713.5,1123C 1707.83,1123.67 1702.17,1123.67 1696.5,1123C 1693.04,1120.01 1692.54,1116.51 1695,1112.5C 1713.67,1063.83 1732.33,1015.17 1751,966.5C 1752.15,965.364 1753.31,964.364 1754.5,963.5 Z M 1765.5,988.5 C 1775.72,1013.97 1785.72,1039.63 1795.5,1065.5C 1775.84,1066.5 1756.18,1066.83 1736.5,1066.5C 1746.16,1040.51 1755.83,1014.51 1765.5,988.5 Z"/></g>
<g><path style="opacity:0.953" fill="#e9e9e5" d="M 1864.5,963.5 C 1870.18,963.334 1875.84,963.501 1881.5,964C 1907.62,1002.41 1933.12,1041.24 1958,1080.5C 1958.33,1042.83 1958.67,1005.17 1959,967.5C 1959.47,966.069 1960.3,964.903 1961.5,964C 1967.17,963.333 1972.83,963.333 1978.5,964C 1979,964.5 1979.5,965 1980,965.5C 1981.66,1016.75 1981.99,1068.08 1981,1119.5C 1980.53,1120.93 1979.7,1122.1 1978.5,1123C 1972.83,1123.67 1967.17,1123.67 1961.5,1123C 1935.61,1084.77 1910.11,1046.27 1885,1007.5C 1884.67,1045.17 1884.33,1082.83 1884,1120.5C 1883.17,1121.33 1882.33,1122.17 1881.5,1123C 1875.83,1123.67 1870.17,1123.67 1864.5,1123C 1864,1122.5 1863.5,1122 1863,1121.5C 1861.34,1070.25 1861.01,1018.92 1862,967.5C 1862.66,966.016 1863.5,964.683 1864.5,963.5 Z"/></g>
<g><path style="opacity:0.97" fill="#e9e9e5" d="M 2022.5,963.5 C 2047.86,963.079 2073.2,963.579 2098.5,965C 2125.77,969.668 2140.6,985.835 2143,1013.5C 2143.2,1021.22 2143.7,1028.88 2144.5,1036.5C 2144.16,1048.12 2143.66,1060.12 2143,1072.5C 2139.99,1103.85 2122.82,1120.68 2091.5,1123C 2068.83,1123.67 2046.17,1123.67 2023.5,1123C 2022.58,1122.63 2021.75,1122.13 2021,1121.5C 2020.33,1069.83 2020.33,1018.17 2021,966.5C 2021.51,965.473 2022.01,964.473 2022.5,963.5 Z M 2043.5,983.5 C 2057.5,983.333 2071.5,983.5 2085.5,984C 2107.22,986.387 2118.72,998.554 2120,1020.5C 2120.88,1038.53 2120.55,1056.53 2119,1074.5C 2115.52,1092.97 2104.36,1102.47 2085.5,1103C 2071.5,1103.5 2057.5,1103.67 2043.5,1103.5C 2043.5,1063.5 2043.5,1023.5 2043.5,983.5 Z"/></g>
<g><path style="opacity:0.944" fill="#e9e9e5" d="M 2378.5,963.5 C 2384.51,963.334 2390.51,963.501 2396.5,964C 2397.7,964.903 2398.53,966.069 2399,967.5C 2399.5,1012.5 2399.67,1057.5 2399.5,1102.5C 2425.17,1102.33 2450.84,1102.5 2476.5,1103C 2478.72,1103.65 2479.89,1105.15 2480,1107.5C 2480.67,1111.5 2480.67,1115.5 2480,1119.5C 2479.53,1120.93 2478.7,1122.1 2477.5,1123C 2444.5,1123.67 2411.5,1123.67 2378.5,1123C 2377.67,1122.17 2376.83,1121.33 2376,1120.5C 2375.33,1069.5 2375.33,1018.5 2376,967.5C 2376.66,966.016 2377.5,964.683 2378.5,963.5 Z"/></g>
<g><path style="opacity:0.967" fill="#e9e9e5" d="M 2646.5,963.5 C 2652.51,963.334 2658.51,963.501 2664.5,964C 2665.67,964.5 2666.5,965.333 2667,966.5C 2674.92,1004.78 2682.59,1043.11 2690,1081.5C 2698.72,1055.34 2707.05,1029.01 2715,1002.5C 2718.05,999.09 2721.88,997.756 2726.5,998.5C 2730.5,998.022 2734,999.022 2737,1001.5C 2745.49,1028.45 2753.82,1055.45 2762,1082.5C 2769.79,1043.86 2777.46,1005.19 2785,966.5C 2785.83,965.667 2786.67,964.833 2787.5,964C 2793.5,963.333 2799.5,963.333 2805.5,964C 2807.52,967.183 2808.02,970.683 2807,974.5C 2797.46,1022.52 2787.8,1070.52 2778,1118.5C 2777.53,1119.93 2776.7,1121.1 2775.5,1122C 2769.95,1123.57 2764.28,1123.9 2758.5,1123C 2757.07,1122.53 2755.9,1121.7 2755,1120.5C 2745.14,1091.24 2735.47,1061.91 2726,1032.5C 2716.87,1061.56 2707.53,1090.56 2698,1119.5C 2696.79,1121.05 2695.29,1122.22 2693.5,1123C 2688.5,1123.67 2683.5,1123.67 2678.5,1123C 2677.58,1122.63 2676.75,1122.13 2676,1121.5C 2664.87,1070.83 2654.37,1020 2644.5,969C 2644.76,966.991 2645.42,965.157 2646.5,963.5 Z"/></g>
</svg>
